<?xml version="1.0" encoding="UTF-8" standalone="no"?>
<svg viewBox="0 0 512 512" version="1.1" xmlns="http://www.w3.org/2000/svg" xmlns:xlink="http://www.w3.org/1999/xlink"><g fill="none" fill-rule="evenodd"><g transform="translate(62.000000, 0.000000)" fill="#6A6E7C"><path d="M194.1,512 C186.4,512 179.2,508.2 174.9,502 L44.3,314.4 C16.1,280.6 0.6,237.4 0.6,192.6 C0.6,86.4 87.4,0 194,0 C300.6,0 387.3,86.4 387.3,192.6 C387.3,225.2 378.9,257.5 363,286.1 C362.4,287.6 361.6,289 360.7,290.4 C355.5,298.8 350.6,305.8 345.4,312.3 L213.4,501.9 C209,508.2 201.8,512 194.1,512 Z M190.8,300.6 C131,300.6 82.4,252.1 82.4,192.6 C82.4,133 131,84.6 190.8,84.6 C250.6,84.6 299.2,133.1 299.2,192.6 C299.2,252.1 250.6,300.6 190.8,300.6 Z" class="shape"></path></g></g></svg>
